{
	"asset":{
		"generator":"Khronos glTF Blender I/O v3.6.27",
		"version":"2.0"
	},
	"extensionsUsed":[
		"KHR_materials_specular"
	],
	"scene":1,
	"scenes":[
		{
			"name":"Scene"
		},
		{
			"name":"Scene.001",
			"nodes":[
				0
			]
		}
	],
	"nodes":[
		{
			"mesh":0,
			"name":"Circle.002",
			"rotation":[
				0.5684577226638794,
				0,
				0,
				0.8227126002311707
			],
			"scale":[
				0.6000000238418579,
				0.6000000834465027,
				0.6000000834465027
			]
		}
	],
	"materials":[
		{
			"doubleSided":true,
			"name":"Rubber.001",
			"pbrMetallicRoughness":{
				"baseColorFactor":[
					0.016683394089341164,
					0.016683394089341164,
					0.016683394089341164,
					1
				],
				"roughnessFactor":0.07189542055130005
			}
		},
		{
			"doubleSided":true,
			"name":"Jeans.001",
			"pbrMetallicRoughness":{
				"baseColorFactor":[
					1,
					0.09214930981397629,
					0.06587928533554077,
					1
				]
			}
		},
		{
			"doubleSided":true,
			"name":"BMD_PBRMetallic.001",
			"pbrMetallicRoughness":{
				"baseColorFactor":[
					0,
					0,
					0,
					1
				]
			}
		},
		{
			"doubleSided":true,
			"emissiveFactor":[
				0.0794607400894165,
				0.15107694268226624,
				0.0329553484916687
			],
			"name":"green1-LED.001",
			"pbrMetallicRoughness":{
				"baseColorFactor":[
					0,
					0,
					0,
					1
				]
			}
		},
		{
			"doubleSided":true,
			"name":"BMD_StainedMetal.001",
			"pbrMetallicRoughness":{
				"baseColorFactor":[
					1,
					0.08539386093616486,
					0.03173217549920082,
					1
				]
			}
		},
		{
			"doubleSided":true,
			"name":"BMD_Chrome_0019.001",
			"pbrMetallicRoughness":{
				"baseColorFactor":[
					0,
					0.04984058812260628,
					1,
					1
				],
				"roughnessFactor":0
			}
		},
		{
			"doubleSided":true,
			"extensions":{
				"KHR_materials_specular":{
					"specularColorFactor":[
						2.0339946610240767,
						0.5379706371986716,
						0.6701921937357395
					]
				}
			},
			"name":"Chipped_Surface.001",
			"pbrMetallicRoughness":{
				"baseColorFactor":[
					0.6678459644317627,
					0.034082990139722824,
					0.09009621292352676,
					1
				],
				"roughnessFactor":0.24836601316928864
			}
		},
		{
			"doubleSided":true,
			"name":"BMD_BrushedAluminium_0022.001",
			"pbrMetallicRoughness":{
				"baseColorFactor":[
					0,
					0,
					0,
					1
				]
			}
		},
		{
			"doubleSided":true,
			"name":"internal_bezel.001",
			"pbrMetallicRoughness":{
				"baseColorFactor":[
					0.32478344440460205,
					0.7812097668647766,
					1,
					1
				],
				"roughnessFactor":0.2679738402366638
			}
		},
		{
			"doubleSided":true,
			"name":"BMD_CarPaint_0020.001",
			"pbrMetallicRoughness":{
				"baseColorFactor":[
					0,
					0,
					0,
					1
				]
			}
		}
	],
	"meshes":[
		{
			"name":"Circle.001",
			"primitives":[
				{
					"attributes":{
						"POSITION":0,
						"NORMAL":1,
						"TEXCOORD_0":2
					},
					"indices":3,
					"material":0
				},
				{
					"attributes":{
						"POSITION":4,
						"NORMAL":5,
						"TEXCOORD_0":6
					},
					"indices":7,
					"material":1
				},
				{
					"attributes":{
						"POSITION":8,
						"NORMAL":9,
						"TEXCOORD_0":10
					},
					"indices":11,
					"material":2
				},
				{
					"attributes":{
						"POSITION":12,
						"NORMAL":13,
						"TEXCOORD_0":14
					},
					"indices":15,
					"material":3
				},
				{
					"attributes":{
						"POSITION":16,
						"NORMAL":17,
						"TEXCOORD_0":18
					},
					"indices":19,
					"material":4
				},
				{
					"attributes":{
						"POSITION":20,
						"NORMAL":21,
						"TEXCOORD_0":22
					},
					"indices":23,
					"material":5
				},
				{
					"attributes":{
						"POSITION":24,
						"NORMAL":25,
						"TEXCOORD_0":26
					},
					"indices":27,
					"material":6
				},
				{
					"attributes":{
						"POSITION":28,
						"NORMAL":29,
						"TEXCOORD_0":30
					},
					"indices":31,
					"material":7
				},
				{
					"attributes":{
						"POSITION":32,
						"NORMAL":33,
						"TEXCOORD_0":34
					},
					"indices":35,
					"material":8
				},
				{
					"attributes":{
						"POSITION":36,
						"NORMAL":37,
						"TEXCOORD_0":38
					},
					"indices":39,
					"material":9
				}
			]
		}
	],
	"accessors":[
		{
			"bufferView":0,
			"componentType":5126,
			"count":9694,
			"max":[
				1.2241135835647583,
				0.49475741386413574,
				1.3761142492294312
			],
			"min":[
				-1.18169367313385,
				0.09630388021469116,
				-1.360232949256897
			],
			"type":"VEC3"
		},
		{
			"bufferView":1,
			"componentType":5126,
			"count":9694,
			"type":"VEC3"
		},
		{
			"bufferView":2,
			"componentType":5126,
			"count":9694,
			"type":"VEC2"
		},
		{
			"bufferView":3,
			"componentType":5123,
			"count":51462,
			"type":"SCALAR"
		},
		{
			"bufferView":4,
			"componentType":5126,
			"count":10636,
			"max":[
				0.4837016463279724,
				0.3871009945869446,
				1.9035016298294067
			],
			"min":[
				-0.5238456130027771,
				-1.3613946437835693,
				-1.9524976015090942
			],
			"type":"VEC3"
		},
		{
			"bufferView":5,
			"componentType":5126,
			"count":10636,
			"type":"VEC3"
		},
		{
			"bufferView":6,
			"componentType":5126,
			"count":10636,
			"type":"VEC2"
		},
		{
			"bufferView":7,
			"componentType":5123,
			"count":16128,
			"type":"SCALAR"
		},
		{
			"bufferView":8,
			"componentType":5126,
			"count":5594,
			"max":[
				0.8822169899940491,
				0.6438180804252625,
				0.9225043654441833
			],
			"min":[
				-0.9274088740348816,
				0.5393211841583252,
				-0.8871214985847473
			],
			"type":"VEC3"
		},
		{
			"bufferView":9,
			"componentType":5126,
			"count":5594,
			"type":"VEC3"
		},
		{
			"bufferView":10,
			"componentType":5126,
			"count":5594,
			"type":"VEC2"
		},
		{
			"bufferView":11,
			"componentType":5123,
			"count":12576,
			"type":"SCALAR"
		},
		{
			"bufferView":12,
			"componentType":5126,
			"count":24,
			"max":[
				0.2983211576938629,
				0.6130647659301758,
				0.019133921712636948
			],
			"min":[
				-0.4890751242637634,
				0.6121124029159546,
				-0.4928499460220337
			],
			"type":"VEC3"
		},
		{
			"bufferView":13,
			"componentType":5126,
			"count":24,
			"type":"VEC3"
		},
		{
			"bufferView":14,
			"componentType":5126,
			"count":24,
			"type":"VEC2"
		},
		{
			"bufferView":15,
			"componentType":5123,
			"count":120,
			"type":"SCALAR"
		},
		{
			"bufferView":16,
			"componentType":5126,
			"count":9737,
			"max":[
				1.1817054748535156,
				0.6075344085693359,
				1.3252283334732056
			],
			"min":[
				-0.8603968620300293,
				0.14969661831855774,
				-1.3197354078292847
			],
			"type":"VEC3"
		},
		{
			"bufferView":17,
			"componentType":5126,
			"count":9737,
			"type":"VEC3"
		},
		{
			"bufferView":18,
			"componentType":5126,
			"count":9737,
			"type":"VEC2"
		},
		{
			"bufferView":19,
			"componentType":5123,
			"count":51168,
			"type":"SCALAR"
		},
		{
			"bufferView":20,
			"componentType":5126,
			"count":73545,
			"max":[
				1.2105374336242676,
				0.6661782264709473,
				1.0857086181640625
			],
			"min":[
				-1.0889320373535156,
				0.19245097041130066,
				-1.0529258251190186
			],
			"type":"VEC3"
		},
		{
			"bufferView":21,
			"componentType":5126,
			"count":73545,
			"type":"VEC3"
		},
		{
			"bufferView":22,
			"componentType":5126,
			"count":73545,
			"type":"VEC2"
		},
		{
			"bufferView":23,
			"componentType":5125,
			"count":162036,
			"type":"SCALAR"
		},
		{
			"bufferView":24,
			"componentType":5126,
			"count":378,
			"max":[
				0.749597430229187,
				0.5945580005645752,
				0.7850401997566223
			],
			"min":[
				-0.790344774723053,
				0.5519272089004517,
				-0.7553806900978088
			],
			"type":"VEC3"
		},
		{
			"bufferView":25,
			"componentType":5126,
			"count":378,
			"type":"VEC3"
		},
		{
			"bufferView":26,
			"componentType":5126,
			"count":378,
			"type":"VEC2"
		},
		{
			"bufferView":27,
			"componentType":5123,
			"count":1512,
			"type":"SCALAR"
		},
		{
			"bufferView":28,
			"componentType":5126,
			"count":810,
			"max":[
				0.13647514581680298,
				0.6164081692695618,
				0.07055695354938507
			],
			"min":[
				-0.048670507967472076,
				0.6148414015769958,
				-0.5931799411773682
			],
			"type":"VEC3"
		},
		{
			"bufferView":29,
			"componentType":5126,
			"count":810,
			"type":"VEC3"
		},
		{
			"bufferView":30,
			"componentType":5126,
			"count":810,
			"type":"VEC2"
		},
		{
			"bufferView":31,
			"componentType":5123,
			"count":1152,
			"type":"SCALAR"
		},
		{
			"bufferView":32,
			"componentType":5126,
			"count":4122,
			"max":[
				0.875599205493927,
				0.6224880814552307,
				0.9127791523933411
			],
			"min":[
				-0.9175364971160889,
				0.4638546407222748,
				-0.8803566694259644
			],
			"type":"VEC3"
		},
		{
			"bufferView":33,
			"componentType":5126,
			"count":4122,
			"type":"VEC3"
		},
		{
			"bufferView":34,
			"componentType":5126,
			"count":4122,
			"type":"VEC2"
		},
		{
			"bufferView":35,
			"componentType":5123,
			"count":6144,
			"type":"SCALAR"
		},
		{
			"bufferView":36,
			"componentType":5126,
			"count":25571,
			"max":[
				0.6988712549209595,
				0.6149618625640869,
				0.7320280075073242
			],
			"min":[
				-0.7474089860916138,
				0.5521665811538696,
				-0.683893084526062
			],
			"type":"VEC3"
		},
		{
			"bufferView":37,
			"componentType":5126,
			"count":25571,
			"type":"VEC3"
		},
		{
			"bufferView":38,
			"componentType":5126,
			"count":25571,
			"type":"VEC2"
		},
		{
			"bufferView":39,
			"componentType":5123,
			"count":140220,
			"type":"SCALAR"
		}
	],
	"bufferViews":[
		{
			"buffer":0,
			"byteLength":116328,
			"byteOffset":0,
			"target":34962
		},
		{
			"buffer":0,
			"byteLength":116328,
			"byteOffset":116328,
			"target":34962
		},
		{
			"buffer":0,
			"byteLength":77552,
			"byteOffset":232656,
			"target":34962
		},
		{
			"buffer":0,
			"byteLength":102924,
			"byteOffset":310208,
			"target":34963
		},
		{
			"buffer":0,
			"byteLength":127632,
			"byteOffset":413132,
			"target":34962
		},
		{
			"buffer":0,
			"byteLength":127632,
			"byteOffset":540764,
			"target":34962
		},
		{
			"buffer":0,
			"byteLength":85088,
			"byteOffset":668396,
			"target":34962
		},
		{
			"buffer":0,
			"byteLength":32256,
			"byteOffset":753484,
			"target":34963
		},
		{
			"buffer":0,
			"byteLength":67128,
			"byteOffset":785740,
			"target":34962
		},
		{
			"buffer":0,
			"byteLength":67128,
			"byteOffset":852868,
			"target":34962
		},
		{
			"buffer":0,
			"byteLength":44752,
			"byteOffset":919996,
			"target":34962
		},
		{
			"buffer":0,
			"byteLength":25152,
			"byteOffset":964748,
			"target":34963
		},
		{
			"buffer":0,
			"byteLength":288,
			"byteOffset":989900,
			"target":34962
		},
		{
			"buffer":0,
			"byteLength":288,
			"byteOffset":990188,
			"target":34962
		},
		{
			"buffer":0,
			"byteLength":192,
			"byteOffset":990476,
			"target":34962
		},
		{
			"buffer":0,
			"byteLength":240,
			"byteOffset":990668,
			"target":34963
		},
		{
			"buffer":0,
			"byteLength":116844,
			"byteOffset":990908,
			"target":34962
		},
		{
			"buffer":0,
			"byteLength":116844,
			"byteOffset":1107752,
			"target":34962
		},
		{
			"buffer":0,
			"byteLength":77896,
			"byteOffset":1224596,
			"target":34962
		},
		{
			"buffer":0,
			"byteLength":102336,
			"byteOffset":1302492,
			"target":34963
		},
		{
			"buffer":0,
			"byteLength":882540,
			"byteOffset":1404828,
			"target":34962
		},
		{
			"buffer":0,
			"byteLength":882540,
			"byteOffset":2287368,
			"target":34962
		},
		{
			"buffer":0,
			"byteLength":588360,
			"byteOffset":3169908,
			"target":34962
		},
		{
			"buffer":0,
			"byteLength":648144,
			"byteOffset":3758268,
			"target":34963
		},
		{
			"buffer":0,
			"byteLength":4536,
			"byteOffset":4406412,
			"target":34962
		},
		{
			"buffer":0,
			"byteLength":4536,
			"byteOffset":4410948,
			"target":34962
		},
		{
			"buffer":0,
			"byteLength":3024,
			"byteOffset":4415484,
			"target":34962
		},
		{
			"buffer":0,
			"byteLength":3024,
			"byteOffset":4418508,
			"target":34963
		},
		{
			"buffer":0,
			"byteLength":9720,
			"byteOffset":4421532,
			"target":34962
		},
		{
			"buffer":0,
			"byteLength":9720,
			"byteOffset":4431252,
			"target":34962
		},
		{
			"buffer":0,
			"byteLength":6480,
			"byteOffset":4440972,
			"target":34962
		},
		{
			"buffer":0,
			"byteLength":2304,
			"byteOffset":4447452,
			"target":34963
		},
		{
			"buffer":0,
			"byteLength":49464,
			"byteOffset":4449756,
			"target":34962
		},
		{
			"buffer":0,
			"byteLength":49464,
			"byteOffset":4499220,
			"target":34962
		},
		{
			"buffer":0,
			"byteLength":32976,
			"byteOffset":4548684,
			"target":34962
		},
		{
			"buffer":0,
			"byteLength":12288,
			"byteOffset":4581660,
			"target":34963
		},
		{
			"buffer":0,
			"byteLength":306852,
			"byteOffset":4593948,
			"target":34962
		},
		{
			"buffer":0,
			"byteLength":306852,
			"byteOffset":4900800,
			"target":34962
		},
		{
			"buffer":0,
			"byteLength":204568,
			"byteOffset":5207652,
			"target":34962
		},
		{
			"buffer":0,
			"byteLength":280440,
			"byteOffset":5412220,
			"target":34963
		}
	],
	"buffers":[
		{
			"byteLength":5692660,
			"uri":"watch.bin"
		}
	]
}
